<svg xmlns="http://www.w3.org/2000/svg" viewBox="0 0 512 512" x="0" y="0" aria-hidden="true" focusable="false" role="img"><path d="M400.74,287.84A108,108,0,0,0,335.13,310c-26.8-8-43.4-26.52-58.14-48.07,10.79-20.08,21-37.83,35.32-48a31.94,31.94,0,0,0,9.43,1.42h154a32,32,0,0,0,32-32v-124a32,32,0,0,0-32-32h-154a32,32,0,0,0-32,32v124c0,.79,0,1.58.1,2.35-14.69,11-25.61,26.17-35,42-14.26-21.53-31.11-42.78-56.73-54.81l27.93-27.93a32,32,0,0,0,0-45.26L141.21,14.83a32,32,0,0,0-45.26,0L11.1,99.68a32,32,0,0,0,0,45.26L96,229.79a32,32,0,0,0,45.26,0L170,201c30.11,7.24,45.91,32.2,64,60.83l1.1,1.75c-9,16.14-18.47,30.94-31.12,41.35a31.93,31.93,0,0,0-9.43-1.41h-154a32,32,0,0,0-32,32v124a32,32,0,0,0,32,32h154a32,32,0,0,0,32-32v-124c0-.77,0-1.53-.09-2.29,12.68-10.35,22.58-23.26,31.11-36.85,13.18,16.83,29.2,32.17,51.26,42.17a108.65,108.65,0,1,0,91.88-50.71Zm-63-212.53h122v92h-122ZM118.58,184.53,56.35,122.31l62.23-62.23,62.23,62.23Zm60,259h-122v-92h122Zm222.16,13.67a60.68,60.68,0,1,1,60.68-60.67A60.74,60.74,0,0,1,400.74,457.19Z" fill="currentColor"/></svg>