<svg xmlns="http://www.w3.org/2000/svg" viewBox="0 0 576 512" x="0" y="0" aria-hidden="true" focusable="false" role="img"><path d="M567.46,83.43a32,32,0,0,0-32-32l-495,.12a32,32,0,0,0-32,32l.08,343a32,32,0,0,0,32,32l495-.12a32,32,0,0,0,32-32ZM56.54,410.56V366h224a18,18,0,0,0,16-9.7l14.23-27.36,49.62,53.32A18,18,0,0,0,373.5,388a18,18,0,0,0,16.06-9.88l44-87a18,18,0,1,0-32.12-16.24l-32.35,64-49.41-53.1a18,18,0,0,0-29.15,4l-21,40.3h-213l0-94.9,14.47.12a80.22,80.22,0,0,0,14.51,25.56l-7.71,13.13a11.48,11.48,0,0,0,2.45,14.54A103.81,103.81,0,0,0,109.88,306a11.36,11.36,0,0,0,14-4.92l7.7-13.13a80.33,80.33,0,0,0,29.33.24l7.48,13.25a11.61,11.61,0,0,0,13.91,5.15,103.9,103.9,0,0,0,29.95-17,11.37,11.37,0,0,0,2.68-14.5l-7.49-13.26a80,80,0,0,0,14.92-25.32l15.28.13A11.44,11.44,0,0,0,249,227a107.11,107.11,0,0,0,.18-34.36h0A11.42,11.42,0,0,0,238,183l-15.28-.12a80,80,0,0,0-14.5-25.56l7.7-13.13a11.47,11.47,0,0,0-2.45-14.54,103.15,103.15,0,0,0-29.56-17.52,11.35,11.35,0,0,0-14,4.92l-7.7,13.13a80.33,80.33,0,0,0-29.33-.24l-7.48-13.25a11.62,11.62,0,0,0-13.92-5.15,104,104,0,0,0-29.94,17,11.37,11.37,0,0,0-2.68,14.5l7.49,13.26a79.86,79.86,0,0,0-14.92,25.32l-14.93-.12,0-82,463-.12.08,311Zm57.8-201.76a32.52,32.52,0,1,1,32.26,32.79A32.49,32.49,0,0,1,114.34,208.8Z" fill="currentColor"/><path d="M474.69,169.38a17.5,17.5,0,1,0,8.76,23.15A17.49,17.49,0,0,0,474.69,169.38Z" fill="currentColor"/><path d="M453.1,217.23a17.5,17.5,0,1,0,8.76,23.15A17.51,17.51,0,0,0,453.1,217.23Z" fill="currentColor"/><circle cx="489.1" cy="137.48" r="17.5" transform="translate(76.25 433.58) rotate(-51.35)" fill="currentColor"/></svg>