<svg xmlns="http://www.w3.org/2000/svg" viewBox="0 0 576 512" x="0" y="0" aria-hidden="true" focusable="false" role="img"><path d="M567.46,83.43a32,32,0,0,0-32-32l-495,.12a32,32,0,0,0-32,32l.08,343a32,32,0,0,0,32,32l495-.12a32,32,0,0,0,32-32ZM56.54,410.56l0-73.51,137,0a18,18,0,0,0,14.94-8l27.19-40.5,51.44,85.7a18,18,0,0,0,14.33,8.7q.56,0,1.11,0a18,18,0,0,0,14.18-6.91l79-101a18,18,0,1,0-28.36-22.17l-62.84,80.38-52.55-87.52a18,18,0,0,0-30.38-.77l-37.63,56-127.41,0,0-201.49,463-.12.08,311Z" fill="currentColor"/><path d="M460.4,164.64a17.5,17.5,0,1,0,2.79,24.59A17.49,17.49,0,0,0,460.4,164.64Z" fill="currentColor"/><path d="M427.7,205.71a17.5,17.5,0,1,0,2.79,24.59A17.5,17.5,0,0,0,427.7,205.71Z" fill="currentColor"/><path d="M493.1,123.57a17.5,17.5,0,1,0,2.79,24.59A17.5,17.5,0,0,0,493.1,123.57Z" fill="currentColor"/></svg>