<svg xmlns="http://www.w3.org/2000/svg" viewBox="0 0 576 512" x="0" y="0" aria-hidden="true" focusable="false" role="img"><path d="M155.43,256.93a96,96,0,1,0,96-96A96.11,96.11,0,0,0,155.43,256.93Zm144,0a48,48,0,1,1-48-48A48.05,48.05,0,0,1,299.43,256.93Z" fill="currentColor"/><path d="M416.57,424.49a64.3,64.3,0,0,1,6.52-5.69,39.24,39.24,0,0,1-3.78-3.84c-5.93-6.9-9.51-16.77-11-28.38a24.88,24.88,0,0,0-3.1-1.81l-43.83-25.31c-32,27.4-36.66,30.08-76.17,44v50.6a200.93,200.93,0,0,1-67.62,0v-50.6c-39.5-13.95-44.19-16.64-76.16-44L97.63,384.77a200.11,200.11,0,0,1-33.85-58.53L107.6,301c-7.63-41.3-7.64-46.72,0-88L63.78,187.63A200.15,200.15,0,0,1,97.63,129.1l43.83,25.31c32-27.4,36.66-30.08,76.16-44V59.78a200.93,200.93,0,0,1,67.62,0v50.6c39.51,14,44.2,16.64,76.17,44l43.83-25.31a200.18,200.18,0,0,1,19.37,27.75A156.85,156.85,0,0,1,465.06,152c3.84,0,7.6.13,11.3.36A248.44,248.44,0,0,0,426.91,81.7a24,24,0,0,0-29-3.81L366.14,96.25a195.78,195.78,0,0,0-32.9-19V40.48A24,24,0,0,0,315.4,17.27a249.57,249.57,0,0,0-127.93,0,24,24,0,0,0-17.84,23.2V77.23a195.78,195.78,0,0,0-32.9,19L104.94,77.89A24,24,0,0,0,76,81.7,247.52,247.52,0,0,0,11.9,192.5a24,24,0,0,0,11.18,27.05l31.84,18.38a197.73,197.73,0,0,0,0,38L23.08,294.32A24,24,0,0,0,11.9,321.37,247.52,247.52,0,0,0,76,432.17a24,24,0,0,0,29,3.81l31.79-18.36a195.78,195.78,0,0,0,32.9,19v36.75a24,24,0,0,0,17.84,23.21,249.68,249.68,0,0,0,127.93,0,24,24,0,0,0,17.84-23.21V436.64a196.18,196.18,0,0,0,32.9-19L397.93,436a24,24,0,0,0,7.88,2.85A61.13,61.13,0,0,1,416.57,424.49Z" fill="currentColor"/><path d="M459.28,506.42a36.89,36.89,0,0,1-27.6-11.73,38.27,38.27,0,0,1-11.15-27.31,38.79,38.79,0,1,1,38.75,39ZM458.84,409c-10.68,0-18.42-2.7-23-8-4.41-5.13-6.56-13.85-6.56-26.67,0-13.09,1.66-24.29,4.93-33.29a76.93,76.93,0,0,1,12.52-22.78,117,117,0,0,1,13.74-14.38,130.78,130.78,0,0,1,12.52-10,107.82,107.82,0,0,0,12.31-10.19,49.28,49.28,0,0,0,9.08-11.81,27.14,27.14,0,0,0,3.29-13.37c0-8.3-2.91-14.17-8.89-17.95-6.68-4.23-15.14-6.37-25.14-6.37s-17.5,1.43-22.17,4.24a29.05,29.05,0,0,0-10.39,9.89A81.86,81.86,0,0,1,422.17,261c-4,4.57-9.79,6.89-17.25,6.89-7,0-13.92-2.39-20.66-7.1-7.35-5.12-11.07-12.93-11.07-23.21,0-8.91,3.4-18.51,10.11-28.54s16.93-18.41,30.58-25.22,30.76-10.18,51.1-10.18c19.38,0,36.65,3.32,51.32,9.86,14.87,6.65,26.6,15.93,34.87,27.6a67.88,67.88,0,0,1,12.61,40,73.85,73.85,0,0,1-6.39,30.61,117.38,117.38,0,0,1-14.94,24.73,134.47,134.47,0,0,1-17.15,18.22c-5.42,4.67-9.68,8.24-12.65,10.61-7.41,5.75-12.74,11.17-15.9,16.15a36,36,0,0,0-5.56,14.83,158.3,158.3,0,0,0-1.06,19.44c0,5.32-2,10.51-6,15.41C479.75,406.4,471.49,409,458.84,409Z" fill="currentColor"/></svg>