<svg xmlns="http://www.w3.org/2000/svg" viewBox="0 0 576 512" x="0" y="0" aria-hidden="true" focusable="false" role="img"><path d="M347.43,256.93a96,96,0,1,0-96,96A96.11,96.11,0,0,0,347.43,256.93Zm-96,48a48,48,0,1,1,48-48A48.06,48.06,0,0,1,251.43,304.93Z" fill="currentColor"/><path d="M217.62,403.49c-39.5-13.95-44.19-16.64-76.16-44L97.63,384.77a200.11,200.11,0,0,1-33.85-58.53L107.6,301c-7.63-41.3-7.64-46.72,0-88L63.78,187.63A200.15,200.15,0,0,1,97.63,129.1l43.83,25.31c32-27.4,36.66-30.08,76.16-44V59.78a200.93,200.93,0,0,1,67.62,0v50.6c39.51,14,44.2,16.64,76.17,44l43.83-25.31a200.11,200.11,0,0,1,33.85,58.53l-43.82,25.29c3.48,18.82,5.37,30.19,5.67,40.91l82.58-84.47A248.1,248.1,0,0,0,426.91,81.7a24,24,0,0,0-29-3.81L366.14,96.25a195.78,195.78,0,0,0-32.9-19V40.48A24,24,0,0,0,315.4,17.27a249.57,249.57,0,0,0-127.93,0,24,24,0,0,0-17.84,23.2V77.23a195.78,195.78,0,0,0-32.9,19L104.94,77.89A24,24,0,0,0,76,81.7,247.52,247.52,0,0,0,11.9,192.5a24,24,0,0,0,11.18,27.05l31.84,18.38a197.73,197.73,0,0,0,0,38L23.08,294.32A24,24,0,0,0,11.9,321.37,247.52,247.52,0,0,0,76,432.17a24,24,0,0,0,29,3.81l31.79-18.36a195.78,195.78,0,0,0,32.9,19v36.75a24,24,0,0,0,17.84,23.21,248.35,248.35,0,0,0,43,7.45L235,456.28q-8.73-.72-17.41-2.19Z" fill="currentColor"/><path d="M567,228l-38.3-37.5a24,24,0,0,0-33.8.35l-41.36,42.24L526.06,304l41.36-42.23A24.06,24.06,0,0,0,567,228Z" fill="currentColor"/><path d="M259.63,431,253.47,492a15.93,15.93,0,0,0,17.78,17.42L332.08,502,503.5,326.93,431.05,256Z" fill="currentColor"/></svg>