<svg xmlns="http://www.w3.org/2000/svg" viewBox="0 0 512 512" x="0" y="0" aria-hidden="true" focusable="false" role="img"><path d="M400.5,64h-80a64,64,0,0,0-128,0h-80a48,48,0,0,0-48,48V464a48,48,0,0,0,48,48h288a48,48,0,0,0,48-48V112A48,48,0,0,0,400.5,64Zm-144-16a16,16,0,1,1-16,16A16,16,0,0,1,256.5,48Zm144,408a8,8,0,0,1-8,8h-272a8,8,0,0,1-8-8V120a8,8,0,0,1,8-8h40v32a16,16,0,0,0,16,16h160a16,16,0,0,0,16-16V112h40a8,8,0,0,1,8,8Z" fill="currentColor"/><path d="M225.3,184.5a5.37,5.37,0,0,0-7.6,0l-34.6,33.2-20.6-20.9a5.37,5.37,0,0,0-7.6,0l-12.7,12.6a5.37,5.37,0,0,0,0,7.6l37.1,37.4a5.13,5.13,0,0,0,7.4,0l51.2-49.6a5.37,5.37,0,0,0,0-7.6Z" fill="currentColor"/><rect width="124" height="32" x="250.5" y="212" rx="7.23" fill="currentColor"/><path d="M225.3,274.5a5.37,5.37,0,0,0-7.6,0l-34.6,33.2-20.6-20.9a5.37,5.37,0,0,0-7.6,0l-12.7,12.6a5.37,5.37,0,0,0,0,7.6l37.1,37.4a5.13,5.13,0,0,0,7.4,0l51.2-49.6a5.37,5.37,0,0,0,0-7.6Z" fill="currentColor"/><rect width="124" height="32" x="250.5" y="302" rx="7.23" fill="currentColor"/><path d="M225.3,364.5a5.37,5.37,0,0,0-7.6,0l-34.6,33.2-20.6-20.9a5.37,5.37,0,0,0-7.6,0l-12.7,12.6a5.37,5.37,0,0,0,0,7.6l37.1,37.4a5.13,5.13,0,0,0,7.4,0l51.2-49.6a5.37,5.37,0,0,0,0-7.6Z" fill="currentColor"/><rect width="124" height="32" x="250.5" y="392" rx="7.23" fill="currentColor"/></svg>